<svg xmlns="http://www.w3.org/2000/svg" xmlns:xlink="http://www.w3.org/1999/xlink" width="371" zoomAndPan="magnify" viewBox="0 0 278.25 64.499998" height="86" preserveAspectRatio="xMidYMid meet" version="1.0"><defs><g/><clipPath id="47d6f34648"><path d="M 0.761719 0.625 L 43 0.625 L 43 31 L 0.761719 31 Z M 0.761719 0.625 " clip-rule="nonzero"/></clipPath><clipPath id="74ade1a54a"><path d="M 0.761719 33 L 43 33 L 43 63.097656 L 0.761719 63.097656 Z M 0.761719 33 " clip-rule="nonzero"/></clipPath><clipPath id="15689e21f3"><path d="M 29 0.625 L 72.207031 0.625 L 72.207031 63.097656 L 29 63.097656 Z M 29 0.625 " clip-rule="nonzero"/></clipPath></defs><g clip-path="url(#47d6f34648)"><path fill="#272830" d="M 28.609375 30.296875 C 28.621094 30.296875 28.628906 30.28125 28.621094 30.273438 C 27.101562 28.515625 26.183594 26.230469 26.183594 23.730469 C 26.183594 18.269531 30.578125 13.8125 36.019531 13.71875 C 36.042969 13.71875 36.066406 13.71875 36.089844 13.71875 C 39.585938 13.71875 42.449219 10.976562 42.648438 7.535156 C 42.871094 3.714844 39.78125 0.582031 35.953125 0.582031 L 17.949219 0.582031 C 17.945312 0.582031 17.9375 0.585938 17.9375 0.589844 L 0.796875 30.273438 C 0.789062 30.285156 0.796875 30.296875 0.808594 30.296875 Z M 28.609375 30.296875 " fill-opacity="1" fill-rule="nonzero"/></g><g clip-path="url(#74ade1a54a)"><path fill="#272830" d="M 28.644531 63.460938 C 27.109375 61.699219 26.183594 59.402344 26.183594 56.890625 C 26.183594 51.371094 30.671875 46.878906 36.195312 46.878906 C 39.816406 46.878906 42.761719 43.933594 42.761719 40.3125 C 42.761719 36.6875 39.816406 33.742188 36.195312 33.742188 L 0.78125 33.742188 L 17.941406 63.460938 Z M 28.644531 63.460938 " fill-opacity="1" fill-rule="nonzero"/></g><g clip-path="url(#15689e21f3)"><path fill="#272830" d="M 36.265625 17.160156 C 36.242188 17.164062 36.21875 17.164062 36.195312 17.164062 C 32.570312 17.164062 29.625 20.109375 29.625 23.730469 C 29.625 27.351562 32.570312 30.296875 36.195312 30.296875 C 38.269531 30.296875 40.199219 30.933594 41.800781 32.019531 C 44.457031 33.824219 46.207031 36.867188 46.207031 40.3125 C 46.207031 45.832031 41.714844 50.324219 36.195312 50.324219 C 32.570312 50.324219 29.625 53.269531 29.625 56.894531 C 29.625 60.515625 32.570312 63.460938 36.195312 63.460938 L 54.242188 63.460938 L 72.394531 32.019531 L 55.605469 2.945312 L 54.242188 0.582031 L 43.640625 0.582031 C 45.175781 2.339844 46.105469 4.640625 46.105469 7.148438 C 46.105469 12.613281 41.707031 17.066406 36.265625 17.160156 Z M 36.265625 17.160156 " fill-opacity="1" fill-rule="nonzero"/></g><g fill="#272830" fill-opacity="1"><g transform="translate(84.030529, 40.955171)"><g><path d="M 13.128906 -3.300781 C 12.355469 -1.394531 10.652344 -0.285156 8.976562 -0.285156 C 7.507812 -0.285156 6.472656 -1.082031 5.933594 -1.804688 C 4.902344 -3.199219 4.875 -4.695312 4.875 -6.628906 L 4.875 -10.628906 C 4.875 -13.105469 5.289062 -14.367188 6.085938 -15.269531 C 6.835938 -16.121094 7.789062 -16.613281 9.003906 -16.613281 C 10.316406 -16.613281 11.402344 -16.019531 12.070312 -15.089844 C 12.871094 -14.007812 13.128906 -12.847656 13.128906 -10.421875 Z M 16.199219 -9.3125 C 16.199219 -11.789062 15.65625 -13.386719 14.238281 -14.933594 C 12.921875 -16.355469 10.910156 -17.152344 9.003906 -17.152344 C 5.882812 -17.152344 3.070312 -15.167969 2.191406 -12.277344 C 1.882812 -11.296875 1.804688 -10.5 1.804688 -9.390625 L 1.804688 -7.507812 C 1.804688 -5.261719 2.425781 -3.480469 3.664062 -2.089844 C 4.902344 -0.695312 6.835938 0.257812 8.847656 0.257812 C 10.679688 0.257812 12.355469 -0.773438 13.15625 -2.140625 L 13.15625 0 L 17.980469 0 L 17.980469 -0.542969 L 16.199219 -0.542969 Z M 16.199219 -9.3125 "/></g></g></g><g fill="#272830" fill-opacity="1"><g transform="translate(102.446057, 40.955171)"><g><path d="M 19.320312 0 L 19.320312 -0.542969 L 17.59375 -0.542969 L 17.59375 -9.335938 C 17.59375 -10.601562 17.386719 -11.839844 17.023438 -12.769531 C 15.96875 -15.375 13.335938 -17.152344 10.394531 -17.152344 C 7.453125 -17.152344 4.824219 -15.375 3.765625 -12.769531 C 3.40625 -11.839844 3.199219 -10.601562 3.199219 -9.335938 L 3.199219 -0.542969 L 1.417969 -0.542969 L 1.417969 0 L 7.996094 0 L 7.996094 -0.542969 L 6.269531 -0.542969 L 6.269531 -11.351562 C 6.269531 -14.652344 7.996094 -16.613281 10.394531 -16.613281 C 12.792969 -16.613281 14.523438 -14.652344 14.523438 -11.351562 L 14.523438 -0.542969 L 12.792969 -0.542969 L 12.792969 0 Z M 19.320312 0 "/></g></g></g><g fill="#272830" fill-opacity="1"><g transform="translate(122.66704, 40.955171)"><g><path d="M 8.253906 0 L 8.253906 -0.542969 L 6.527344 -0.542969 L 6.527344 -23.730469 L 1.675781 -23.730469 L 1.675781 -23.191406 L 3.457031 -23.191406 L 3.457031 -0.542969 L 1.675781 -0.542969 L 1.675781 0 Z M 8.253906 0 "/></g></g></g><g fill="#272830" fill-opacity="1"><g transform="translate(130.533527, 40.955171)"><g><path d="M 13.128906 -3.300781 C 12.355469 -1.394531 10.652344 -0.285156 8.976562 -0.285156 C 7.507812 -0.285156 6.472656 -1.082031 5.933594 -1.804688 C 4.902344 -3.199219 4.875 -4.695312 4.875 -6.628906 L 4.875 -10.628906 C 4.875 -13.105469 5.289062 -14.367188 6.085938 -15.269531 C 6.835938 -16.121094 7.789062 -16.613281 9.003906 -16.613281 C 10.316406 -16.613281 11.402344 -16.019531 12.070312 -15.089844 C 12.871094 -14.007812 13.128906 -12.847656 13.128906 -10.421875 Z M 16.199219 -9.3125 C 16.199219 -11.789062 15.65625 -13.386719 14.238281 -14.933594 C 12.921875 -16.355469 10.910156 -17.152344 9.003906 -17.152344 C 5.882812 -17.152344 3.070312 -15.167969 2.191406 -12.277344 C 1.882812 -11.296875 1.804688 -10.5 1.804688 -9.390625 L 1.804688 -7.507812 C 1.804688 -5.261719 2.425781 -3.480469 3.664062 -2.089844 C 4.902344 -0.695312 6.835938 0.257812 8.847656 0.257812 C 10.679688 0.257812 12.355469 -0.773438 13.15625 -2.140625 L 13.15625 0 L 17.980469 0 L 17.980469 -0.542969 L 16.199219 -0.542969 Z M 16.199219 -9.3125 "/></g></g></g><g fill="#272830" fill-opacity="1"><g transform="translate(148.949055, 40.955171)"><g><path d="M 12.792969 0 L 19.320312 0 L 19.320312 -0.542969 L 17.59375 -0.542969 L 17.59375 -9.390625 C 17.59375 -11.296875 17.128906 -12.976562 16.355469 -13.957031 C 17.566406 -15.503906 19.5 -16.613281 21.539062 -16.613281 C 23.0625 -16.613281 24.171875 -15.992188 24.816406 -15.0625 C 25.5625 -14.007812 25.847656 -12.71875 25.847656 -10.628906 L 25.847656 -0.542969 L 24.117188 -0.542969 L 24.117188 0 L 30.695312 0 L 30.695312 -0.542969 L 28.917969 -0.542969 L 28.917969 -9.492188 C 28.917969 -12.355469 27.910156 -14.34375 25.898438 -15.8125 C 24.6875 -16.6875 23.191406 -17.152344 21.746094 -17.152344 C 19.628906 -17.152344 17.746094 -16.328125 16.019531 -14.445312 C 15.554688 -15.0625 14.910156 -15.605469 14.238281 -16.042969 C 13.15625 -16.742188 11.738281 -17.152344 10.421875 -17.152344 C 7.6875 -17.152344 5.132812 -15.632812 3.894531 -13.105469 C 3.25 -11.789062 3.199219 -10.242188 3.199219 -8.332031 L 3.199219 -0.542969 L 1.417969 -0.542969 L 1.417969 0 L 7.996094 0 L 7.996094 -0.542969 L 6.269531 -0.542969 L 6.269531 -11.351562 C 6.269531 -14.652344 7.996094 -16.613281 10.394531 -16.613281 C 12.792969 -16.613281 14.523438 -14.652344 14.523438 -11.351562 L 14.523438 -0.542969 L 12.792969 -0.542969 Z M 12.792969 0 "/></g></g></g><g fill="#272830" fill-opacity="1"><g transform="translate(180.544441, 40.955171)"><g><path d="M 14.058594 -6.472656 C 14.058594 -4.050781 13.800781 -2.890625 13 -1.804688 C 12.328125 -0.878906 11.246094 -0.285156 9.929688 -0.285156 C 8.71875 -0.285156 7.765625 -0.773438 7.015625 -1.625 C 6.214844 -2.527344 5.804688 -3.792969 5.804688 -6.269531 L 5.804688 -13.59375 C 6.578125 -15.503906 8.28125 -16.613281 9.957031 -16.613281 C 11.425781 -16.613281 12.460938 -15.8125 13 -15.089844 C 14.03125 -13.695312 14.058594 -12.199219 14.058594 -10.265625 Z M 2.734375 -7.507812 C 2.734375 -6.398438 2.8125 -5.597656 3.121094 -4.617188 C 4 -1.726562 6.808594 0.257812 9.929688 0.257812 C 11.839844 0.257812 13.851562 -0.542969 15.167969 -1.960938 C 16.585938 -3.507812 17.128906 -5.105469 17.128906 -7.582031 L 17.128906 -9.390625 C 17.128906 -11.632812 16.507812 -13.414062 15.269531 -14.804688 C 14.03125 -16.199219 12.097656 -17.152344 10.085938 -17.152344 C 8.253906 -17.152344 6.605469 -16.121094 5.804688 -14.753906 L 5.804688 -23.730469 L 0.953125 -23.730469 L 0.953125 -23.191406 L 2.734375 -23.191406 Z M 2.734375 -7.507812 "/></g></g></g><g fill="#272830" fill-opacity="1"><g transform="translate(198.959972, 40.955171)"><g><path d="M 12.742188 -16.921875 L 12.742188 -16.378906 L 14.523438 -16.378906 L 14.523438 -5.570312 C 14.523438 -2.269531 12.792969 -0.308594 10.394531 -0.308594 C 7.996094 -0.308594 6.269531 -2.269531 6.269531 -5.570312 L 6.269531 -16.378906 L 7.996094 -16.378906 L 7.996094 -16.921875 L 1.417969 -16.921875 L 1.417969 -16.378906 L 3.199219 -16.378906 L 3.199219 -7.582031 C 3.199219 -6.320312 3.40625 -5.082031 3.765625 -4.152344 C 4.824219 -1.546875 7.453125 0.230469 10.394531 0.230469 C 13.335938 0.230469 15.96875 -1.546875 17.023438 -4.152344 C 17.386719 -5.082031 17.59375 -6.320312 17.59375 -7.582031 L 17.59375 -16.378906 L 19.320312 -16.378906 L 19.320312 -16.921875 Z M 12.742188 -16.921875 "/></g></g></g><g fill="#272830" fill-opacity="1"><g transform="translate(219.180958, 40.955171)"><g><path d="M 8.253906 0 L 8.253906 -0.542969 L 6.527344 -0.542969 L 6.527344 -23.730469 L 1.675781 -23.730469 L 1.675781 -23.191406 L 3.457031 -23.191406 L 3.457031 -0.542969 L 1.675781 -0.542969 L 1.675781 0 Z M 8.253906 0 "/></g></g></g></svg>